<?xml version="1.0" encoding="utf-8"?>
<!-- Generator: Adobe Illustrator 21.0.1, SVG Export Plug-In . SVG Version: 6.00 Build 0)  -->
<svg version="1.1" id="Слой_1" xmlns="http://www.w3.org/2000/svg" xmlns:xlink="http://www.w3.org/1999/xlink" x="0px" y="0px"
	 viewBox="0 0 73 73" style="enable-background:new 0 0 73 73;" xml:space="preserve">
<style type="text/css">
	.st0{fill:#FFCA05;}
</style>
<path class="st0" d="M61.8,13.4c-4.7-2.2-9.8-3.8-15.1-4.7c-0.6,1.2-1.4,2.7-1.9,4c-5.6-0.8-11.2-0.8-16.7,0c-0.5-1.3-1.3-2.8-2-4
	c-5.3,0.9-10.3,2.5-15.1,4.7C1.6,27.8-1,41.8,0.3,55.7c6.3,4.7,12.4,7.6,18.5,9.5c1.5-2,2.8-4.2,4-6.5c-2.2-0.8-4.3-1.8-6.2-3
	c0.5-0.4,1-0.8,1.5-1.2c12,5.6,25,5.6,36.9,0c0.5,0.4,1,0.8,1.5,1.2c-2,1.2-4.1,2.2-6.2,3c1.1,2.3,2.5,4.5,4,6.5
	c6-1.9,12.2-4.7,18.5-9.5C74.2,39.6,70.1,25.7,61.8,13.4z M24.4,47.1c-3.6,0-6.6-3.4-6.6-7.5s2.9-7.5,6.6-7.5s6.6,3.4,6.6,7.5
	C30.9,43.8,28,47.1,24.4,47.1z M48.6,47.1c-3.6,0-6.6-3.4-6.6-7.5s2.9-7.5,6.6-7.5c3.7,0,6.6,3.4,6.6,7.5
	C55.2,43.8,52.3,47.1,48.6,47.1z"/>
</svg>
