<?xml version="1.0" encoding="utf-8"?>
<!-- Generator: Adobe Illustrator 21.0.1, SVG Export Plug-In . SVG Version: 6.00 Build 0)  -->
<svg version="1.1" id="Layer_1" xmlns="http://www.w3.org/2000/svg" xmlns:xlink="http://www.w3.org/1999/xlink" x="0px" y="0px"
	 viewBox="0 0 32 32" style="enable-background:new 0 0 32 32;" xml:space="preserve">
<style type="text/css">
	.st0{fill:#FFCA05;}
</style>
<path class="st0" d="M16,2C9.5,2,4.3,7.3,4.3,13.7c0,12.2,11.3,16.2,11.4,16.2c0.1,0,0.2,0.1,0.4,0.1c0.1,0,0.2,0,0.4-0.1
	c0.1,0,11.4-4,11.4-16.2C27.7,7.3,22.5,2,16,2z M16,19.9c-3.4,0-6.2-2.8-6.2-6.2c0-3.4,2.8-6.2,6.2-6.2s6.2,2.8,6.2,6.2
	C22.2,17.1,19.4,19.9,16,19.9z"/>
</svg>
